<?xml version="1.0" encoding="UTF-8"?>
<!DOCTYPE svg PUBLIC "-//W3C//DTD SVG 1.1//EN" "http://www.w3.org/Graphics/SVG/1.1/DTD/svg11.dtd">
<!-- Creator: CorelDRAW Home & Student X8 -->
<svg xmlns="http://www.w3.org/2000/svg" xml:space="preserve" width="210mm" height="297mm" version="1.1" shape-rendering="geometricPrecision" text-rendering="geometricPrecision" image-rendering="optimizeQuality" fill-rule="evenodd" clip-rule="evenodd"
viewBox="0 0 21000 29700"
 xmlns:xlink="http://www.w3.org/1999/xlink">
 <g id="Layer_x0020_1">
  <metadata id="CorelCorpID_0Corel-Layer"/>
  <g id="_618150776">
   <path fill="black" stroke="black" stroke-width="200" d="M10050 14945l-1079 0c1980,-2780 2369,-5105 2881,-8528 739,127 766,-8 746,421 -100,2213 -880,5899 -238,8113l-446 -1c-24,-494 -433,-887 -933,-887 -498,0 -905,390 -931,882z"/>
   <g id="_629903352">
    <path fill="yellow" d="M12212 10387l-1006 -449c239,-1036 410,-2143 598,-3398 739,128 766,-7 746,422 -43,948 -211,2167 -338,3425z"/>
    <path fill="none" stroke="black" stroke-width="200" d="M11206 9938c239,-1036 410,-2143 598,-3398 739,128 766,-7 746,422 -43,948 -211,2167 -338,3425"/>
   </g>
   <line fill="none" stroke="black" stroke-width="200" x1="12995" y1="14967" x2="11872" y2= "14967" />
   <line fill="none" stroke="black" stroke-width="200" x1="10072" y1="14945" x2="8949" y2= "14945" />
   <g id="_629901528">
    <polygon fill="black" stroke="black" stroke-width="7.62" points="12790,3546 13901,2452 15012,1358 13375,983 11737,609 12264,2078 "/>
    <polygon fill="black" stroke="black" stroke-width="7.62" points="12184,6199 13295,5105 14406,4011 12769,3637 11131,3263 11658,4731 "/>
   </g>
   <circle fill="none" stroke="black" stroke-width="200" cx="10995" cy="14981" r="933"/>
   <line fill="none" stroke="black" stroke-width="200" x1="12250" y1="6009" x2="12194" y2= "6461" />
  </g>
 </g>
</svg>
