<?xml version="1.0" encoding="UTF-8"?>
<!DOCTYPE svg PUBLIC "-//W3C//DTD SVG 1.1//EN" "http://www.w3.org/Graphics/SVG/1.1/DTD/svg11.dtd">
<!-- Creator: CorelDRAW Home & Student X8 -->
<svg xmlns="http://www.w3.org/2000/svg" xml:space="preserve" width="210mm" height="297mm" version="1.1" shape-rendering="geometricPrecision" text-rendering="geometricPrecision" image-rendering="optimizeQuality" fill-rule="evenodd" clip-rule="evenodd"
viewBox="0 0 21000 29700"
 xmlns:xlink="http://www.w3.org/1999/xlink">
 <g id="Siirto">
  <metadata id="CorelCorpID_0Corel-Layer"/>
  <g id="_629898264">
   <path fill="black" stroke="black" stroke-width="200" d="M9593 14865l-1079 0c1980,-2780 2369,-5105 2881,-8528 739,127 766,-8 746,421 -100,2213 -880,5899 -238,8113l-446 -1c-24,-494 -433,-887 -933,-887 -498,0 -905,390 -931,882z"/>
   <g>
    <path fill="yellow" d="M11815 10121l-1006 -449c239,-1036 410,-2144 598,-3398 739,127 766,-7 746,422 -43,948 -211,2167 -338,3425z"/>
    <path fill="none" stroke="black" stroke-width="200" d="M10809 9672c239,-1036 410,-2144 598,-3398 739,127 766,-7 746,422 -43,948 -211,2167 -338,3425"/>
   </g>
   <g>
    <path fill="yellow" d="M10173 11790l1485 555c-18,918 42,1782 249,2494l-447 -1c-24,-494 -432,-887 -932,-887 -499,0 -906,390 -932,881l-1079 0c749,-1051 1270,-2037 1656,-3042z"/>
    <path fill="none" stroke="black" stroke-width="200" d="M11658 12345c-18,918 42,1782 249,2494l-447 -1c-24,-494 -432,-887 -932,-887 -499,0 -906,390 -932,881l-1079 0c749,-1051 1270,-2037 1656,-3042"/>
   </g>
   <line fill="none" stroke="black" stroke-width="200" x1="12538" y1="14887" x2="11415" y2= "14887" />
   <line fill="none" stroke="black" stroke-width="200" x1="9615" y1="14865" x2="8492" y2= "14865" />
   <polygon fill="black" stroke="black" stroke-width="7.62" points="10307,5452 11814,5857 13320,6262 12814,4660 12308,3059 11308,4255 "/>
   <polygon fill="black" stroke="black" stroke-width="7.62" points="12328,3077 13448,1991 14568,905 12933,519 11299,132 11813,1605 "/>
   <circle fill="none" stroke="black" stroke-width="200" cx="10538" cy="14901" r="933"/>
   <line fill="none" stroke="black" stroke-width="200" x1="11748" y1="6387" x2="11978" y2= "4924" />
  </g>
 </g>
</svg>
