<?xml version="1.0" encoding="UTF-8"?>
<!DOCTYPE svg PUBLIC "-//W3C//DTD SVG 1.1//EN" "http://www.w3.org/Graphics/SVG/1.1/DTD/svg11.dtd">
<!-- Creator: CorelDRAW Home & Student X8 -->
<svg xmlns="http://www.w3.org/2000/svg" xml:space="preserve" width="210mm" height="297mm" version="1.1" shape-rendering="geometricPrecision" text-rendering="geometricPrecision" image-rendering="optimizeQuality" fill-rule="evenodd" clip-rule="evenodd"
viewBox="0 0 21000 29700"
 xmlns:xlink="http://www.w3.org/1999/xlink">
 <g id="Siirto">
  <metadata id="CorelCorpID_0Corel-Layer"/>
  <g id="_629898264">
   <path fill="black" stroke="black" stroke-width="200" d="M9556 14857l-1079 0c1980,-2780 2369,-5105 2881,-8528 739,127 766,-8 746,421 -100,2213 -880,5899 -238,8113l-446 -1c-24,-494 -433,-887 -933,-887 -498,0 -905,390 -931,882z"/>
   <g>
    <path fill="yellow" d="M11778 10113l-1006 -449c239,-1036 410,-2144 598,-3398 739,127 766,-7 746,422 -43,948 -211,2167 -338,3425z"/>
    <path fill="none" stroke="black" stroke-width="200" d="M10772 9664c239,-1036 410,-2144 598,-3398 739,127 766,-7 746,422 -43,948 -211,2167 -338,3425"/>
   </g>
   <g>
    <path fill="yellow" d="M10136 11782l1485 555c-18,918 42,1782 249,2494l-447 -1c-24,-494 -432,-887 -932,-887 -499,0 -906,390 -932,881l-1079 0c749,-1051 1270,-2037 1656,-3042z"/>
    <path fill="none" stroke="black" stroke-width="200" d="M11621 12337c-18,918 42,1782 249,2494l-447 -1c-24,-494 -432,-887 -932,-887 -499,0 -906,390 -932,881l-1079 0c749,-1051 1270,-2037 1656,-3042"/>
   </g>
   <line fill="none" stroke="black" stroke-width="200" x1="12501" y1="14879" x2="11378" y2= "14879" />
   <line fill="none" stroke="black" stroke-width="200" x1="9578" y1="14857" x2="8455" y2= "14857" />
   <polygon fill="black" stroke="black" stroke-width="7.62" points="10270,5444 11777,5849 13283,6254 12777,4652 12271,3051 11271,4247 "/>
   <polygon fill="black" stroke="black" stroke-width="7.62" points="12291,3069 13411,1983 14531,897 12896,511 11262,124 11776,1597 "/>
   <circle fill="none" stroke="black" stroke-width="200" cx="10501" cy="14893" r="933"/>
   <line fill="none" stroke="black" stroke-width="200" x1="11711" y1="6379" x2="11941" y2= "4916" />
  </g>
 </g>
</svg>
