<?xml version="1.0" encoding="UTF-8"?>
<!DOCTYPE svg PUBLIC "-//W3C//DTD SVG 1.1//EN" "http://www.w3.org/Graphics/SVG/1.1/DTD/svg11.dtd">
<!-- Creator: CorelDRAW Home & Student X8 -->
<svg xmlns="http://www.w3.org/2000/svg" xml:space="preserve" width="210mm" height="297mm" version="1.1" shape-rendering="geometricPrecision" text-rendering="geometricPrecision" image-rendering="optimizeQuality" fill-rule="evenodd" clip-rule="evenodd"
viewBox="0 0 21000 29700"
 xmlns:xlink="http://www.w3.org/1999/xlink">
 <g id="keskipiste">
  <metadata id="CorelCorpID_0Corel-Layer"/>
  <path fill="black" stroke="black" stroke-width="200" d="M9531 14899l-1079 0c1980,-2780 2369,-5105 2881,-8528 739,127 766,-8 746,421 -100,2213 -880,5899 -238,8113l-446 -1c-24,-494 -433,-887 -933,-887 -498,0 -905,390 -931,882z"/>
  <g id="_617321056">
   <path fill="yellow" stroke="black" stroke-width="200" d="M10604 10379l1104 361c-136,1517 -182,3046 149,4185l-447 -2c-24,-494 -432,-887 -932,-887 -498,0 -905,391 -932,882l-1079 0c1115,-1565 1725,-2985 2137,-4539z"/>
   <path fill="none" stroke="black" stroke-width="200" d="M11708 10740c-136,1517 -182,3046 149,4185l-447 -2c-24,-494 -432,-887 -932,-887 -498,0 -905,391 -932,882l-1079 0c1115,-1565 1725,-2985 2137,-4539"/>
  </g>
  <line fill="none" stroke="black" stroke-width="200" x1="12476" y1="14921" x2="11353" y2= "14921" />
  <line fill="none" stroke="black" stroke-width="200" x1="9553" y1="14899" x2="8430" y2= "14899" />
 </g>
 <g id="runko">
  <metadata id="CorelCorpID_1Corel-Layer"/>
  <g id="_616574424">
   <polygon fill="black" stroke="black" stroke-width="7.62" points="12145,3379 11077,4517 10010,5654 11661,5963 13312,6273 12728,4826 "/>
   <polygon fill="black" stroke="black" stroke-width="7.62" points="12646,704 11579,1842 10511,2979 12162,3288 13813,3598 13230,2151 "/>
  </g>
  <circle fill="none" stroke="black" stroke-width="200" cx="10476" cy="14935" r="933"/>
  <line fill="none" stroke="black" stroke-width="200" x1="11731" y1="5963" x2="11675" y2= "6415" />
 </g>
</svg>
