<?xml version="1.0" encoding="UTF-8"?>
<!DOCTYPE svg PUBLIC "-//W3C//DTD SVG 1.1//EN" "http://www.w3.org/Graphics/SVG/1.1/DTD/svg11.dtd">
<!-- Creator: CorelDRAW Home & Student X8 -->
<svg xmlns="http://www.w3.org/2000/svg" xml:space="preserve" width="210mm" height="297mm" version="1.1" shape-rendering="geometricPrecision" text-rendering="geometricPrecision" image-rendering="optimizeQuality" fill-rule="evenodd" clip-rule="evenodd"
viewBox="0 0 21000 29700"
 xmlns:xlink="http://www.w3.org/1999/xlink">
 <g id="keskipiste">
  <metadata id="CorelCorpID_0Corel-Layer"/>
  <path fill="black" stroke="black" stroke-width="200" d="M9593 14865l-1079 0c1980,-2780 2369,-5105 2881,-8528 739,127 766,-8 746,421 -100,2213 -880,5899 -238,8113l-446 -1c-24,-494 -433,-887 -933,-887 -498,0 -905,390 -931,882z"/>
  <g id="_617321056">
   <path fill="yellow" stroke="black" stroke-width="200" d="M10666 10345l1104 361c-136,1517 -182,3046 149,4185l-447 -2c-24,-494 -432,-887 -932,-887 -498,0 -905,391 -932,882l-1079 0c1115,-1565 1725,-2985 2137,-4539z"/>
   <path fill="none" stroke="black" stroke-width="200" d="M11770 10706c-136,1517 -182,3046 149,4185l-447 -2c-24,-494 -432,-887 -932,-887 -498,0 -905,391 -932,882l-1079 0c1115,-1565 1725,-2985 2137,-4539"/>
  </g>
  <line fill="none" stroke="black" stroke-width="200" x1="12538" y1="14887" x2="11415" y2= "14887" />
  <line fill="none" stroke="black" stroke-width="200" x1="9615" y1="14865" x2="8492" y2= "14865" />
 </g>
 <g id="runko">
  <metadata id="CorelCorpID_1Corel-Layer"/>
  <g id="_616574424">
   <polygon fill="black" stroke="black" stroke-width="7.62" points="12207,3345 11139,4483 10072,5620 11723,5929 13374,6239 12790,4792 "/>
   <polygon fill="black" stroke="black" stroke-width="7.62" points="12708,670 11641,1808 10573,2945 12224,3254 13875,3564 13292,2117 "/>
  </g>
  <g id="_616574136">
   <line fill="none" stroke="black" stroke-width="200" x1="-16819" y1="8792" x2="-12986" y2= "12625" />
   <line fill="none" stroke="black" stroke-width="200" x1="-12986" y1="8792" x2="-16819" y2= "12625" />
  </g>
  <line fill="none" stroke="black" stroke-width="200" x1="-21948" y1="10789" x2="-21959" y2= "22489" />
  <path fill="none" stroke="black" stroke-width="200" d="M35894 11989l2 0 0 -7075 -1702 0 0 7075c0,-469 381,-850 850,-850 470,0 850,381 850,850z"/>
  <path fill="none" stroke="black" stroke-width="200" d="M-7284 13278c1472,-2502 1235,-5075 1895,-7686 491,2574 426,5769 1458,7693l-614 -7c1,-18 0,244 0,0 0,-244 -381,-850 -850,-850 -470,0 -850,597 -850,850 0,254 -5,-36 0,0l-1039 0z"/>
  <circle fill="none" stroke="black" stroke-width="200" cx="10538" cy="14901" r="933"/>
  <line fill="none" stroke="black" stroke-width="200" x1="11793" y1="5929" x2="11737" y2= "6381" />
 </g>
 <g id="huippumerkki">
  <metadata id="CorelCorpID_2Corel-Layer"/>
  <polygon fill="none" stroke="black" stroke-width="200" points="28356,274 27405,1763 26454,3251 28356,3251 30258,3251 29307,1763 "/>
  <polygon fill="none" stroke="black" stroke-width="200" points="27667,9390 28618,7902 29569,6414 27667,6414 25765,6414 26716,7902 "/>
  <rect fill="none" stroke="black" stroke-width="200" x="31546" y="18927" width="2972" height="3790"/>
  <circle fill="none" stroke="black" stroke-width="200" cx="27587" cy="21373" r="1550"/>
  <circle fill="none" stroke="black" stroke-width="200" cx="26841" cy="12453" r="1550"/>
 </g>
</svg>
