<?xml version="1.0" encoding="UTF-8"?>
<!DOCTYPE svg PUBLIC "-//W3C//DTD SVG 1.1//EN" "http://www.w3.org/Graphics/SVG/1.1/DTD/svg11.dtd">
<!-- Creator: CorelDRAW Home & Student X8 -->
<svg xmlns="http://www.w3.org/2000/svg" xml:space="preserve" width="210mm" height="297mm" version="1.1" shape-rendering="geometricPrecision" text-rendering="geometricPrecision" image-rendering="optimizeQuality" fill-rule="evenodd" clip-rule="evenodd"
viewBox="0 0 21000 29700"
 xmlns:xlink="http://www.w3.org/1999/xlink">
 <g id="runko">
  <metadata id="CorelCorpID_0Corel-Layer"/>
  <line fill="param(fill) #FFF" stroke="param(outline) #000" stroke-width="param(outline-width) 1" x1="10517" y1="2217" x2="10506" y2= "13917" />
  <path fill="param(fill) #FFF" stroke="param(outline) #000" stroke-width="param(outline-width) 1" d="M11396 14659l2 0 0 -7075 -1702 0 0 7075c0,-469 381,-850 850,-850 469,0 850,381 850,850z"/>
  <path fill="param(fill) #FFF" stroke="param(outline) #000" stroke-width="param(outline-width) 1" d="M34256 26750c1472,-2503 1235,-5075 1895,-7687 491,2574 426,5769 1458,7693l-615 -6c2,-19 0,243 0,0 0,-244 -380,-851 -850,-851 -469,0 -850,597 -850,851 0,253 -4,-37 0,0l-1038 0z"/>
  <circle fill="param(fill) #FFF" stroke="param(outline) #000" stroke-width="param(outline-width) 1" cx="10538" cy="14901" r="933"/>
 </g>
</svg>
