<?xml version="1.0" encoding="UTF-8"?>
<!DOCTYPE svg PUBLIC "-//W3C//DTD SVG 1.1//EN" "http://www.w3.org/Graphics/SVG/1.1/DTD/svg11.dtd">
<!-- Creator: CorelDRAW Home & Student X8 -->
<svg xmlns="http://www.w3.org/2000/svg" xml:space="preserve" width="210mm" height="297mm" version="1.1" shape-rendering="geometricPrecision" text-rendering="geometricPrecision" image-rendering="optimizeQuality" fill-rule="evenodd" clip-rule="evenodd"
viewBox="0 0 21000 29700"
 xmlns:xlink="http://www.w3.org/1999/xlink">
 <g id="keskipiste">
  <metadata id="CorelCorpID_0Corel-Layer"/>
  <path fill="red" stroke="black" stroke-width="200" d="M9581 14812l-1079 0c1980,-2780 2369,-5105 2881,-8528 739,127 766,-8 746,421 -100,2213 -880,5899 -238,8113l-446 -1c-24,-494 -433,-887 -933,-887 -498,0 -905,390 -931,882z"/>
  <line fill="none" stroke="black" stroke-width="200" x1="12526" y1="14834" x2="11403" y2= "14834" />
  <line fill="none" stroke="black" stroke-width="200" x1="9603" y1="14812" x2="8480" y2= "14812" />
 </g>
 <g id="runko">
  <metadata id="CorelCorpID_1Corel-Layer"/>
  <circle fill="none" stroke="black" stroke-width="200" cx="10526" cy="14848" r="933"/>
  <line fill="none" stroke="black" stroke-width="200" x1="11736" y1="6334" x2="11966" y2= "4871" />
 </g>
 <g id="huippumerkki">
  <metadata id="CorelCorpID_2Corel-Layer"/>
  <rect fill="none" stroke="black" stroke-width="200" transform="matrix(0.979088 0.203436 -0.203436 0.979088 11311.8 864.032)" width="2972" height="3790"/>
 </g>
</svg>
