<?xml version="1.0" encoding="UTF-8"?>
<!DOCTYPE svg PUBLIC "-//W3C//DTD SVG 1.1//EN" "http://www.w3.org/Graphics/SVG/1.1/DTD/svg11.dtd">
<!-- Creator: CorelDRAW Home & Student X8 -->
<svg xmlns="http://www.w3.org/2000/svg" xml:space="preserve" width="210mm" height="297mm" version="1.1" shape-rendering="geometricPrecision" text-rendering="geometricPrecision" image-rendering="optimizeQuality" fill-rule="evenodd" clip-rule="evenodd"
viewBox="0 0 21000 29700"
 xmlns:xlink="http://www.w3.org/1999/xlink">
 <g id="keskipiste">
  <metadata id="CorelCorpID_0Corel-Layer"/>
  <path fill="red" stroke="black" stroke-width="200" d="M9593 14865l-1079 0c1980,-2780 2369,-5105 2881,-8528 739,127 766,-8 746,421 -100,2213 -880,5899 -238,8113l-446 -1c-24,-494 -433,-887 -933,-887 -498,0 -905,390 -931,882z"/>
  <g id="_631169432">
   <path fill="yellow" d="M-3062 5083l-1005 -449c238,-1036 410,-2143 597,-3398 739,128 766,-7 746,422 -43,948 -211,2167 -338,3425z"/>
   <path fill="none" stroke="black" stroke-width="200" d="M-4067 4634c238,-1036 410,-2143 597,-3398 739,128 766,-7 746,422 -43,948 -211,2167 -338,3425"/>
  </g>
  <g id="_631168544">
   <path fill="black" d="M-10174 4237l-1005 -450c-414,1791 -1029,3370 -2284,5131l1079 0c27,-492 434,-882 932,-882 500,0 908,393 932,887l447 1c-367,-1265 -270,-3011 -101,-4687z"/>
   <path fill="none" stroke="black" stroke-width="200" d="M-11179 3787c-414,1791 -1029,3370 -2284,5131l1079 0c27,-492 434,-882 932,-882 500,0 908,393 932,887l447 1c-367,-1265 -270,-3011 -101,-4687"/>
  </g>
  <g id="_631168904">
   <path fill="yellow" stroke="black" stroke-width="200" d="M-9908 16229l1104 362c-136,1517 -182,3045 149,4184l-447 -1c-24,-494 -432,-887 -932,-887 -498,0 -905,390 -932,881l-1079 0c1115,-1564 1725,-2985 2137,-4539z"/>
   <path fill="none" stroke="black" stroke-width="200" d="M-8804 16591c-136,1517 -182,3045 149,4184l-447 -1c-24,-494 -432,-887 -932,-887 -498,0 -905,390 -932,881l-1079 0c1115,-1564 1725,-2985 2137,-4539"/>
  </g>
  <line fill="none" stroke="black" stroke-width="200" x1="12538" y1="14887" x2="11415" y2= "14887" />
  <line fill="none" stroke="black" stroke-width="200" x1="9615" y1="14865" x2="8492" y2= "14865" />
 </g>
 <g id="runko">
  <metadata id="CorelCorpID_1Corel-Layer"/>
  <g id="_631168424">
   <polygon fill="black" stroke="black" stroke-width="7.62" points="-10163,-3119 -9051,-4213 -7940,-5308 -9577,-5682 -11215,-6056 -10689,-4587 "/>
   <polygon fill="black" stroke="black" stroke-width="7.62" points="-10769,-466 -9657,-1560 -8546,-2654 -10183,-3028 -11821,-3402 -11295,-1934 "/>
  </g>
  <polygon fill="black" stroke="black" stroke-width="7.62" points="-2992,-3958 -1881,-5052 -769,-6147 -2407,-6521 -4044,-6895 -3518,-5426 "/>
  <polygon fill="black" stroke="black" stroke-width="7.62" points="16348,-6759 15318,-5587 14289,-4415 15950,-4161 17610,-3907 16979,-5333 "/>
  <g id="_631166984">
   <line fill="none" stroke="black" stroke-width="200" x1="-16819" y1="8792" x2="-12986" y2= "12625" />
   <line fill="none" stroke="black" stroke-width="200" x1="-12986" y1="8792" x2="-16819" y2= "12625" />
  </g>
  <line fill="none" stroke="black" stroke-width="200" x1="-21948" y1="10789" x2="-21959" y2= "22489" />
  <path fill="none" stroke="black" stroke-width="200" d="M35894 11989l2 0 0 -7075 -1702 0 0 7075c0,-469 381,-850 850,-850 470,0 850,381 850,850z"/>
  <path fill="none" stroke="black" stroke-width="200" d="M-7284 13278c1472,-2502 1235,-5075 1895,-7686 491,2574 426,5769 1458,7693l-614 -7c1,-18 0,244 0,0 0,-244 -381,-850 -850,-850 -470,0 -850,597 -850,850 0,254 -5,-36 0,0l-1039 0z"/>
  <circle fill="none" stroke="black" stroke-width="200" cx="10538" cy="14901" r="933"/>
  <line fill="none" stroke="black" stroke-width="200" x1="11748" y1="6387" x2="11978" y2= "4924" />
 </g>
 <g id="huippumerkki">
  <metadata id="CorelCorpID_2Corel-Layer"/>
  <polygon fill="none" stroke="black" stroke-width="200" points="28356,274 27405,1763 26454,3251 28356,3251 30258,3251 29307,1763 "/>
  <polygon fill="none" stroke="black" stroke-width="200" points="27667,9390 28618,7902 29569,6414 27667,6414 25765,6414 26716,7902 "/>
  <rect fill="none" stroke="black" stroke-width="200" transform="matrix(0.979088 0.203436 -0.203436 0.979088 11324.1 917.402)" width="2972" height="3790"/>
  <circle fill="none" stroke="black" stroke-width="200" cx="27587" cy="21373" r="1550"/>
  <circle fill="none" stroke="black" stroke-width="200" cx="26841" cy="12453" r="1550"/>
 </g>
</svg>
